<svg width="36" height="36" viewBox="0 0 36 36" fill="none" xmlns="http://www.w3.org/2000/svg">
<path fill-rule="evenodd" clip-rule="evenodd" d="M18 36C27.9411 36 36 27.9411 36 18C36 8.05887 27.9411 0 18 0C8.05887 0 0 8.05887 0 18C0 27.9411 8.05887 36 18 36ZM20.7108 9.42623C22.27 9.70389 23.7612 10.1887 25.1518 10.8467C25.1639 10.8521 25.1742 10.861 25.1802 10.8735C27.6441 14.6108 28.861 18.8267 28.4061 23.6801C28.4043 23.7006 28.394 23.7194 28.3777 23.7318C26.5115 25.1452 24.7038 26.0032 22.921 26.5719C22.8926 26.5808 22.8617 26.5701 22.8445 26.5451C22.4325 25.9541 22.0584 25.3309 21.7308 24.6764C21.7118 24.6381 21.729 24.5916 21.7677 24.5765C22.362 24.3452 22.927 24.0684 23.4705 23.7408C23.5135 23.7149 23.5161 23.6515 23.4766 23.6211C23.3613 23.5327 23.247 23.4399 23.1377 23.347C23.1171 23.3301 23.0896 23.3265 23.0663 23.3381C19.5378 25.0193 15.6721 25.0193 12.1014 23.3381C12.0782 23.3274 12.0506 23.331 12.0309 23.3479C11.9217 23.4408 11.8072 23.5327 11.6929 23.6211C11.6533 23.6515 11.6568 23.7149 11.6998 23.7408C12.2433 24.0622 12.8083 24.3452 13.4017 24.5773C13.4404 24.5925 13.4585 24.6381 13.4395 24.6764C13.1188 25.3318 12.7447 25.955 12.325 26.546C12.3069 26.5701 12.2768 26.5808 12.2484 26.5719C10.4743 26.0032 8.66655 25.1452 6.80036 23.7318C6.78488 23.7194 6.7737 23.6997 6.77198 23.6792C6.39186 19.4812 7.16672 15.2304 9.99526 10.8726C10.0021 10.861 10.0124 10.8521 10.0245 10.8467C11.416 10.1878 12.9072 9.703 14.4655 9.42623C14.4939 9.42176 14.5223 9.43515 14.5369 9.46104C14.7295 9.81281 14.9497 10.2637 15.0985 10.6324C16.7411 10.3735 18.4095 10.3735 20.0864 10.6324C20.2352 10.2717 20.4476 9.81281 20.6394 9.46104C20.6541 9.43426 20.6824 9.42087 20.7108 9.42623ZM12.0119 18.8553C12.0119 20.1052 12.8977 21.123 13.9727 21.123C15.0649 21.123 15.9335 20.1052 15.9335 18.8553C15.9507 17.6143 15.0735 16.5875 13.9727 16.5875C12.8805 16.5875 12.0119 17.6053 12.0119 18.8553ZM19.2617 18.8553C19.2617 20.1052 20.1475 21.123 21.2225 21.123C22.3233 21.123 23.1833 20.1052 23.1833 18.8553C23.2005 17.6143 22.3233 16.5875 21.2225 16.5875C20.1303 16.5875 19.2617 17.6053 19.2617 18.8553Z" fill="#FCB69F"/>
</svg>
