<svg width="40" height="40" viewBox="0 0 40 40" fill="none" xmlns="http://www.w3.org/2000/svg">
<path fill-rule="evenodd" clip-rule="evenodd" d="M20 0C31.046 0 40 8.954 40 20C40 31.046 31.046 40 20 40C8.954 40 0 31.046 0 20C0 8.954 8.954 0 20 0ZM16 26.928V35.496C17.3067 35.832 18.6507 36.0013 20 36C22.916 36 25.648 35.22 28.002 33.858L16.002 26.928H16ZM12 20L4.58 24.284C5.65113 28.1266 8.11632 31.4318 11.494 33.554L12 33.86V20ZM36 20L24 26.928L31.416 31.21C34.2081 28.3742 35.8389 24.5968 35.988 20.62L36 20ZM19.98 15.368L15.98 17.704L16 22.334L20.02 24.632L24.02 22.296L24 17.666L19.98 15.368ZM8.582 8.79C5.64015 11.7789 3.994 15.8062 4 20L16 13.072L8.582 8.79ZM28 6.14V20L35.42 15.716C34.2939 11.6766 31.6303 8.23905 28 6.14ZM20 4C17.084 4 14.352 4.78 11.998 6.142L24 13.072V4.504C22.6932 4.16833 21.3492 3.99899 20 4Z" fill="url(#paint0_linear_56_4669)"/>
<defs>
<linearGradient id="paint0_linear_56_4669" x1="0" y1="20" x2="40" y2="20" gradientUnits="userSpaceOnUse">
<stop stop-color="#FF9A9E"/>
<stop offset="0.99" stop-color="#FAD0C4"/>
<stop offset="1" stop-color="#FAD0C4"/>
</linearGradient>
</defs>
</svg>
