<svg width="12" height="13" viewBox="0 0 12 13" fill="none" xmlns="http://www.w3.org/2000/svg">
<path d="M4.44088 1.19997L4.74 1.34953C5.23332 1.59619 5.63334 1.9962 5.88 2.48953C5.92944 2.58841 6.07056 2.58841 6.12 2.48953C6.36666 1.9962 6.76668 1.59619 7.26 1.34953L7.55912 1.19997C8.16627 0.896392 8.86198 0.820021 9.52053 0.984658C10.1541 1.14306 10.7139 1.51473 11.1058 2.03722L11.2737 2.26106C11.7451 2.8897 12 3.65431 12 4.44011V4.69011C12 5.04837 11.9561 5.40527 11.8692 5.75284L11.8106 5.98699C11.6056 6.80707 11.2387 7.57789 10.7315 8.25415L10.3905 8.7089C10.1305 9.05555 9.84622 9.3833 9.53983 9.6897L9.19392 10.0356C8.40314 10.8264 7.49006 11.4845 6.4898 11.9846C6.18146 12.1388 5.81854 12.1388 5.5102 11.9846C4.50994 11.4845 3.59686 10.8264 2.80608 10.0356L2.46017 9.6897C2.15378 9.3833 1.86952 9.05555 1.60953 8.7089L1.26847 8.25415C0.761274 7.57789 0.394386 6.80707 0.189366 5.98699L0.130828 5.75284C0.0439373 5.40527 0 5.04837 0 4.69011V4.44011C0 3.65431 0.254868 2.8897 0.726349 2.26106L0.894231 2.03722C1.28609 1.51473 1.84586 1.14306 2.47947 0.984658C3.13802 0.820021 3.83373 0.896392 4.44088 1.19997Z" fill="#687684"/>
</svg>
