<svg width="36" height="36" viewBox="0 0 36 36" fill="none" xmlns="http://www.w3.org/2000/svg">
<path fill-rule="evenodd" clip-rule="evenodd" d="M18 36C27.9411 36 36 27.9411 36 18C36 8.05887 27.9411 0 18 0C8.05887 0 0 8.05887 0 18C0 27.9411 8.05887 36 18 36ZM29.2102 13.7411C29.2102 13.5276 29.2102 13.316 29.1965 13.1045C30.0996 12.4074 30.8803 11.5446 31.5 10.554C30.6581 10.9528 29.7642 11.2141 28.8492 11.3291C29.8126 10.7139 30.5338 9.74581 30.8784 8.60611C29.9717 9.17937 28.9808 9.58397 27.947 9.80138C26.1993 7.81933 23.2751 7.72379 21.4159 9.58787C20.2166 10.79 19.7084 12.5819 20.0804 14.292C16.3684 14.094 12.9104 12.2241 10.5667 9.14817C9.34186 11.3983 9.96709 14.2764 11.9954 15.7222C11.2605 15.6988 10.542 15.4872 9.90037 15.106V15.1684C9.90037 17.5122 11.4497 19.5303 13.6033 19.9944C12.9241 20.1923 12.2112 20.2215 11.5192 20.0792C12.1243 22.0846 13.8565 23.4583 15.8318 23.4983C14.1965 24.8681 12.1773 25.612 10.0987 25.61C9.73126 25.609 9.36472 25.5856 9 25.5388C11.1115 26.9837 13.5676 27.75 16.0759 27.7461V27.75C24.5667 27.75 29.2102 20.2469 29.2102 13.7411Z" fill="#FCB69F"/>
</svg>
